<svg width="30" height="30" viewBox="0 0 30 30" fill="none" xmlns="http://www.w3.org/2000/svg">
<path d="M9.41113 18.4512C10.508 18.2926 10.8304 19.2025 10.8545 19.6777C9.99428 20.4958 8.05765 22.5654 7.19141 24.2979C6.32516 26.0303 4.94093 26.7521 4.35742 26.8965V28.3223C3.98209 28.6252 3.20338 28.8332 2.86035 28.8994V30C0.824967 30 0.579697 28.0759 0.711914 27.1133C0.206993 27.0119 0.0271169 26.0139 0 25.5273C1.55846 25.5273 2.73868 25.4887 3.00391 25.4346C7.7863 21.302 8.03958 18.6497 9.41113 18.4512ZM2.47266 0.598633C11.8946 14.6021 18.7962 18.8137 21.0693 19.1689V19.8857H19.7178V21.8789L24.7549 27.1279H25.9414C26.5956 27.6604 26.3522 28.7105 25.9414 29.3496C25.6127 29.8609 24.5361 29.8263 24.0391 29.7451C23.7713 28.5648 23.2271 27.948 22.9883 27.7871L18.207 22.8682L16.9609 24.415V25.8652C15.2774 25.3492 14.3365 23.591 14.0762 22.7764C10.8514 15.0372 8.27129 16.7682 3.45117 12.6611C-0.404973 9.37537 1.1922 3.25046 2.47266 0.598633ZM18.4268 0C19.019 0.725943 19.5014 0.812245 19.6689 0.764648H23.1191L23.9766 2.43359C21.1968 3.90095 23.6826 5.37094 25.2734 5.92285L28.3428 3.31738C31.9361 10.8763 26.3575 14.3857 23.1191 15.1953C20.6174 15.0889 18.239 16.3664 17.3623 17.0186L18.958 12.3926H20.2275V11.0146C19.0849 9.63628 18.0697 9.20987 17.3623 9.61816C16.7964 9.9449 17.5977 11.5075 18.0693 12.248L15.3125 13.2822C14.0065 13.2822 13.3172 11.456 13.1357 10.543L15.3125 9.85352V5.53711C14.6429 4.8834 13.9688 2.74489 13.7158 1.75781C16.9249 2.79551 17.3623 1.55371 17.9492 1.55371C18.4188 1.55392 19.1964 1.96777 19.5264 2.1748C18.5132 1.50577 18.371 0.446027 18.4268 0Z" fill="white"/>
</svg>
