<svg width="25" height="30" viewBox="0 0 25 30" fill="none" xmlns="http://www.w3.org/2000/svg">
<path d="M6.73523 12.0924V10.2207C9.29378 11.2175 11.5315 12.259 13.4608 13.2807C14.0692 12.4207 15.2473 12.032 15.7883 11.1282C17.3551 8.51064 19.5346 4.87738 19.9434 4.22703C20.718 2.99475 19.8632 1.02889 21.1275 0.307793C21.7343 -0.0383028 22.5566 -0.150389 23.5784 0.27765C24.8686 0.818154 24.8304 2.2207 24.4682 3.40495C24.2264 4.19569 23.3594 4.54521 22.5609 4.33049C21.654 5.83208 19.5931 9.30484 18.6045 11.1832C17.6159 13.0615 17.3279 14.8652 17.3074 15.5322C19.4789 16.9421 20.9991 18.203 21.9079 19.1075C22.3511 19.5486 22.5609 20.1597 22.5609 20.7849C21.8063 20.2279 21.0546 19.6971 20.3111 19.1925L13.4608 30H0L8.45035 12.7237C7.75747 12.4432 7.17793 12.2328 6.73523 12.0924Z" fill="white"/>
</svg>
