<svg width="19" height="30" viewBox="0 0 19 30" fill="none" xmlns="http://www.w3.org/2000/svg">
<path d="M0 30V27.5938C0.311671 27.2367 1.03401 25.9113 1.43002 23.4664C1.82603 21.0216 3.42839 21.7687 4.18007 22.4478C4.57119 21.5169 4.87308 19.6903 2.95171 19.8308L2.0167 16.7221C2.1817 16.8158 2.75738 17.0277 3.74006 17.1261C4.54063 16.687 6.45344 15.1449 7.70013 12.4894C8.09736 12.3723 9.17782 11.7131 10.3218 10.0129C11.7519 7.88778 14.7401 1.38555 18.9772 0C19.0519 0.988748 18.9853 3.34093 18.1216 4.83966C16.0378 8.18893 11.6339 16.1581 10.6887 21.2406L12.0512 21.4663C11.9398 22.0127 11.3153 23.1523 9.70853 23.3397H8.80015V22.5532C7.68546 21.1902 6.88122 22.9454 6.61844 23.9933L7.35179 25.5038L3.75839 28.7354C3.05119 28.5539 2.82816 29.5028 2.80504 30H0Z" fill="white"/>
</svg>
